<svg version="1.1" id="Layer_1" xmlns="http://www.w3.org/2000/svg" x="0" y="0" viewBox="0 0 333.4 333.4" xml:space="preserve"><style></style><path d="M15.1 88.2s2.7-70.7 80.4-68.4 208.6-.8 221.7 76.6c13.1 77.4-84.3 222.8-162.9 222.6-67.8-.2-143.4-125.8-139.2-230.8z" fill="#486eb4"/><path d="M217.2 67.1H191c-29.4 0-48.5 19.5-48.5 49.7v22.9h-26.3c-2.3 0-4.1 1.8-4.1 4.1V177c0 2.3 1.8 4.1 4.1 4.1h26.3V265c0 2.3 1.8 4.1 4.1 4.1H181c2.3 0 4.1-1.8 4.1-4.1v-83.8h30.8c2.3 0 4.1-1.8 4.1-4.1v-33.2c0-1.1-.4-2.1-1.2-2.9-.8-.8-1.8-1.2-2.9-1.2h-30.8v-19.4c0-9.3 2.2-14.1 14.4-14.1h17.6c2.3 0 4.1-1.8 4.1-4.1v-31c.1-2.2-1.7-4.1-4-4.1z" fill="#fff"/></svg>